<?xml version="1.0" encoding="utf-8"?>
<!-- Generator: Adobe Illustrator 24.1.2, SVG Export Plug-In . SVG Version: 6.00 Build 0)  -->
<svg version="1.1" id="Layer_1" xmlns="http://www.w3.org/2000/svg" xmlns:xlink="http://www.w3.org/1999/xlink" x="0px" y="0px"
	 viewBox="0 0 526.8 381.3" style="enable-background:new 0 0 526.8 381.3;" xml:space="preserve">
<style type="text/css">
	.st0{fill:url(#SVGID_1_);}
	.st1{fill:url(#SVGID_2_);}
</style>
<g>
	<g>
		<path d="M276.4,373.3h-26c-93.7,0-169.65-75.95-169.65-169.65v-26C80.75,83.95,156.7,8,250.4,8h26
			c93.7,0,169.65,75.95,169.65,169.65v26C446.05,297.35,370.1,373.3,276.4,373.3z"/>
	</g>
	<linearGradient id="SVGID_1_" gradientUnits="userSpaceOnUse" x1="243.011" y1="190.65" x2="396.7867" y2="190.65">
		<stop  offset="0" style="stop-color:#BBBDBF"/>
		<stop  offset="0.2" style="stop-color:#E6E7E8"/>
		<stop  offset="0.4944" style="stop-color:#FFFFFF"/>
		<stop  offset="0.8" style="stop-color:#E6E7E8"/>
		<stop  offset="1" style="stop-color:#BBBDBF"/>
	</linearGradient>
	<path class="st0" d="M300.05,201.42l22.53-0.3c17.26-0.23,20.64,3.93,16.88,21.02c-3.56,16.15-8.71,19.95-25.48,20.18l-23.01,0.3
		L300.05,201.42z M313.77,139.16l20.85-0.27c15.59-0.21,19.17,3,16.07,17.04c-3.19,14.51-8.05,18.07-22.67,18.27l-22.04,0.29
		L313.77,139.16z M342.8,107.96c-25.9,0.34-41.33,0.74-58.55,2.06c-4.84,0.37-8.88,3.87-9.92,8.62l-31.05,140.86
		c-1.47,6.69,3.45,13.12,10.3,13.38c17.1,0.66,34.56,0.58,61.5,0.22c40.51-0.53,60.2-9.66,67.52-42.9
		c5.68-25.74-0.12-40.6-25.55-42.37l0.31-1.4c21.51-2.16,32.47-13.97,37.59-37.14c7.09-32.21-5.69-41.35-47.04-41.35
		c-1.33,0-2.68,0.01-4.07,0.03H342.8z"/>
	<g>
		<radialGradient id="SVGID_2_" cx="187.1055" cy="190.65" r="58.2155" gradientUnits="userSpaceOnUse">
			<stop  offset="0" style="stop-color:#E2A225"/>
			<stop  offset="0" style="stop-color:#FCD453"/>
			<stop  offset="1" style="stop-color:#E4A214"/>
		</radialGradient>
		<path class="st1" d="M135.46,249.97c-2.13,0-4.02-1.2-4.92-3.13c-0.9-1.93-0.62-4.14,0.74-5.78l42.14-50.86
			c0.43-0.52,0.51-1.23,0.22-1.83l-23.33-48.21c-0.81-1.67-0.72-3.63,0.26-5.22c0.98-1.59,2.68-2.56,4.56-2.59l14.8-0.18
			c2.13,0,4.06,1.2,4.96,3.07l15.09,31.17c0.54,1.12,2.06,1.3,2.85,0.35l27.59-33.29c1.03-1.24,2.53-1.95,4.12-1.97l14.13-0.16
			c2.2,0,4.09,1.2,4.99,3.13c0.9,1.93,0.62,4.14-0.74,5.78l-40.71,49.13c-0.43,0.52-0.51,1.23-0.22,1.83l24.16,49.9
			c0.81,1.69,0.71,3.64-0.27,5.23c-0.99,1.59-2.69,2.56-4.55,2.58l-14.82,0.19c-2.15,0-4.07-1.21-4.97-3.08l-15.9-32.86
			c-0.54-1.12-2.06-1.3-2.85-0.35l-29.01,35c-0.99,1.21-2.48,1.94-4.07,1.97L135.46,249.97z"/>
	</g>
</g>
</svg>
