<?xml version="1.0" standalone="no"?>
<!DOCTYPE svg PUBLIC "-//W3C//DTD SVG 20010904//EN"
 "http://www.w3.org/TR/2001/REC-SVG-20010904/DTD/svg10.dtd">
<svg version="1.0" xmlns="http://www.w3.org/2000/svg"
 width="300.000000pt" height="300.000000pt" viewBox="0 0 300.000000 300.000000"
 preserveAspectRatio="xMidYMid meet">
<metadata>
Created by potrace 1.11, written by Peter Selinger 2001-2013
</metadata>
<g transform="translate(0.000000,300.000000) scale(0.100000,-0.100000)"
fill="#000000" stroke="none">
<path d="M2135 2891 c-33 -15 -85 -52 -116 -81 -56 -52 -56 -52 -42 -81 16
-33 12 -111 -6 -117 -6 -2 -20 -23 -30 -48 -22 -48 -37 -59 -27 -19 4 15 2 25
-4 25 -6 0 -16 13 -21 29 -10 28 -11 29 -37 15 -15 -8 -36 -14 -47 -14 -11 0
-49 -9 -83 -20 -35 -11 -68 -18 -73 -14 -5 3 -9 -4 -9 -15 0 -11 -11 -31 -25
-45 -14 -14 -25 -32 -25 -41 0 -19 -16 -20 -23 -1 -6 15 38 86 53 86 6 0 10 3
10 8 0 4 -29 8 -65 10 l-65 2 0 -40 c0 -42 -14 -54 -25 -21 -3 10 -5 23 -4 27
8 44 9 43 -183 38 -264 -8 -262 -8 -290 10 -14 9 -38 36 -54 59 -19 29 -29 37
-32 27 -8 -24 -40 -61 -46 -52 -2 4 4 27 15 51 20 46 17 69 -5 38 -17 -23 -41
-23 -31 1 14 32 18 72 7 72 -6 0 -19 -16 -28 -35 -9 -19 -20 -32 -25 -29 -9 5
-2 50 10 69 12 17 7 40 -9 40 -13 0 -21 -17 -36 -73 -5 -18 -24 -5 -24 16 0 9
7 30 15 46 12 22 12 32 4 42 -26 32 -42 13 -55 -66 -12 -66 -37 -69 -53 -6
-15 59 -14 62 7 43 17 -15 19 -14 29 14 11 27 10 31 -10 38 -41 15 -167 -39
-182 -78 -3 -8 11 -28 32 -47 25 -21 32 -33 22 -34 -8 0 -26 11 -39 25 -13 14
-27 25 -31 25 -4 0 -26 -27 -48 -60 -41 -60 -53 -110 -27 -110 8 0 17 -7 20
-16 4 -12 14 -15 34 -11 15 2 36 1 47 -3 22 -10 16 -12 -35 -14 -19 -1 -34 -5
-34 -9 12 -71 9 -68 69 -64 30 2 55 0 55 -4 0 -5 -20 -9 -44 -9 l-44 0 15 -31
c13 -26 19 -30 40 -24 60 15 83 17 83 8 0 -6 -19 -14 -42 -19 -54 -11 -55 -31
-3 -58 36 -19 40 -25 43 -65 2 -24 7 -52 13 -63 13 -25 13 -131 0 -157 -6 -11
-7 -22 -2 -25 11 -7 67 9 95 27 30 20 58 25 181 33 126 9 241 9 303 1 36 -5
43 -3 38 9 -3 8 -9 21 -12 29 -11 27 14 16 40 -17 18 -23 32 -32 50 -30 15 1
26 -3 26 -8 0 -6 -8 -10 -17 -11 -10 -1 -31 -2 -48 -3 -16 -1 -29 -6 -28 -11
1 -6 -49 -8 -130 -5 l-132 4 90 6 c101 7 85 11 -55 15 -90 2 -234 -20 -299
-47 -20 -7 -22 -11 -10 -19 9 -6 -1 -9 -34 -9 -66 0 -87 -13 -87 -53 0 -36 15
-57 40 -57 11 0 21 -15 29 -42 24 -79 72 -168 107 -196 58 -46 144 -69 270
-71 110 -2 113 -1 175 32 39 21 77 51 97 76 43 57 41 41 -3 -20 -37 -52 -34
-62 7 -29 31 24 53 77 62 145 13 93 62 160 90 122 11 -14 39 -123 36 -142 -1
-12 32 -81 48 -98 41 -46 157 -73 309 -72 64 0 79 -3 71 -12 -7 -9 -7 -18 2
-28 7 -9 10 -19 6 -22 -4 -4 -17 5 -30 20 -21 24 -30 27 -88 27 -36 0 -67 -3
-71 -6 -3 -3 3 -29 14 -57 11 -29 18 -61 14 -74 -3 -13 -1 -31 4 -41 24 -47
33 -169 13 -206 -21 -42 -49 -62 -115 -82 -47 -14 -60 -15 -67 -5 -6 10 -13
10 -33 -3 -33 -22 -39 -10 -18 34 10 23 24 36 40 38 20 3 23 0 18 -17 -3 -12
-2 -21 3 -21 24 0 26 116 3 168 -9 20 -17 48 -19 62 -3 36 -22 80 -34 80 -14
0 -13 -12 5 -36 20 -29 8 -37 -26 -17 -27 16 -30 16 -45 1 -11 -11 -27 -14
-54 -11 -22 3 -40 1 -44 -6 -4 -6 -22 -11 -40 -11 -17 0 -37 -5 -44 -12 -20
-20 -24 -2 -7 31 9 18 13 36 10 41 -12 19 -36 10 -46 -17 -6 -16 -16 -35 -24
-43 -7 -8 -15 -40 -18 -71 -4 -30 -9 -63 -13 -72 -7 -20 27 -79 62 -106 27
-21 31 -40 9 -42 -33 -3 -42 -3 -92 5 -59 9 -95 40 -95 82 0 15 -11 42 -24 61
-37 55 -43 158 -14 214 6 10 8 19 4 19 -3 0 -2 6 3 13 5 6 8 28 8 47 0 34 -1
35 -42 38 -24 2 -55 -4 -72 -12 -39 -21 -58 -21 -42 -2 16 19 -6 31 -67 40
-24 3 -56 15 -72 26 -36 25 -90 87 -90 103 -1 7 -6 5 -14 -5 -21 -28 -26 -22
-23 29 2 41 -1 49 -20 58 -16 7 -21 15 -17 31 5 17 -1 24 -27 33 -30 10 -35 9
-55 -16 -41 -52 -72 -192 -40 -180 15 6 13 -4 -18 -99 -4 -14 -1 -27 9 -38 15
-14 14 -19 -10 -50 -31 -41 -30 -70 3 -74 27 -4 25 -17 -15 -101 -18 -37 -22
-55 -14 -60 8 -5 2 -31 -18 -88 -30 -81 -28 -109 6 -96 22 8 12 -52 -16 -98
-23 -40 -60 -158 -54 -176 2 -6 13 -8 25 -5 18 4 20 2 14 -21 -3 -14 -31 -60
-61 -103 -59 -81 -69 -110 -35 -101 28 7 25 -3 -14 -54 -18 -24 -45 -66 -60
-92 -21 -38 -23 -49 -12 -53 8 -3 23 -1 35 5 34 18 32 13 -19 -55 -51 -67 -57
-79 -41 -89 18 -10 -21 -99 -55 -128 -30 -25 -32 -30 -22 -57 11 -33 38 -41
38 -11 0 38 20 42 216 39 l189 -3 -95 -25 -95 -25 264 -3 c145 -1 267 0 270 4
3 3 -1 9 -10 14 -21 12 -27 130 -6 130 9 0 14 -16 16 -52 1 -29 4 -54 6 -56 2
-2 10 17 18 44 7 26 19 50 25 52 14 4 12 -39 -3 -58 -7 -8 -17 -30 -23 -47
l-11 -33 77 2 c48 1 61 3 34 5 -33 3 -43 8 -40 20 3 18 10 19 205 26 129 5
163 -3 150 -37 -5 -13 1 -16 40 -16 29 0 50 5 57 15 12 16 70 24 220 27 82 2
90 1 104 -20 13 -19 23 -22 83 -22 53 0 73 4 87 18 16 16 34 18 142 16 100 -2
126 -5 136 -18 19 -26 216 -22 297 5 77 27 203 33 270 13 26 -8 47 -19 47 -24
0 -6 35 -10 80 -10 72 0 80 2 80 19 0 10 -25 46 -55 80 -30 34 -55 70 -55 80
0 9 -20 43 -44 74 -52 67 -75 114 -82 164 -7 55 -13 72 -44 115 -26 36 -34 62
-45 146 -2 18 -13 44 -25 59 -25 32 -25 39 0 46 29 7 26 54 -4 78 -22 17 -24
25 -23 111 1 86 -2 99 -33 167 -33 71 -36 91 -27 171 5 36 -19 90 -53 123 -37
36 -40 70 -7 65 17 -2 23 2 25 23 2 19 -8 39 -36 72 -22 25 -42 57 -46 70 -3
14 -14 28 -24 31 -32 10 -84 54 -73 61 6 3 27 -6 46 -21 32 -24 38 -25 51 -13
13 13 11 21 -16 61 -21 32 -35 70 -45 126 -17 97 -33 138 -75 185 -24 28 -31
44 -28 69 2 26 -1 33 -15 32 -23 -2 -22 12 3 29 10 7 22 29 25 48 3 19 17 57
29 84 13 28 28 68 34 90 6 22 20 65 31 96 37 102 33 236 -10 302 -53 80 -141
97 -244 48z m155 -1 c8 -5 12 -12 8 -15 -9 -9 -48 4 -48 16 0 12 21 11 40 -1z
m-90 -80 c-25 -48 -18 -67 11 -30 43 55 50 61 60 55 5 -4 -1 -19 -16 -37 -14
-17 -24 -33 -21 -35 4 -4 46 16 56 28 9 10 40 18 40 10 0 -25 -74 -64 -117
-63 -31 1 -32 1 -38 -56 -13 -111 -20 -132 -42 -132 -9 0 -13 6 -10 14 17 45
47 151 47 168 0 14 -5 18 -15 14 -22 -8 -19 3 16 68 20 37 35 54 41 48 6 -6 2
-25 -12 -52z m-53 31 c1 -1 -6 -21 -16 -45 -12 -26 -16 -48 -11 -57 5 -7 6
-17 4 -21 -18 -29 -51 30 -34 62 7 13 7 21 -1 25 -15 10 18 44 39 40 9 -2 18
-4 19 -4z m213 -22 c0 -6 -4 -7 -10 -4 -5 3 -10 11 -10 16 0 6 5 7 10 4 6 -3
10 -11 10 -16z m-1764 -40 c14 -22 22 -44 19 -47 -9 -9 -65 57 -65 75 0 25 20
13 46 -28z m1461 14 c-3 -5 -8 -30 -11 -57 -8 -58 -15 -73 -26 -56 -17 27 4
120 26 120 8 0 13 -3 11 -7z m333 -72 c0 -16 -55 -25 -129 -22 -44 2 -11 15
47 19 31 2 59 5 61 8 8 7 21 4 21 -5z m-1877 -27 c15 -4 27 -11 27 -16 0 -10
-28 -6 -75 12 -31 12 -33 25 -2 16 12 -4 34 -9 50 -12z m-41 -54 c13 0 30 -5
38 -10 11 -7 0 -9 -35 -4 -63 8 -67 11 -52 34 11 19 12 19 19 0 4 -12 17 -20
30 -20z m104 3 c-11 -11 -19 6 -11 24 8 17 8 17 12 0 3 -10 2 -21 -1 -24z
m1774 -2 c3 -1 -2 -5 -10 -10 -19 -10 -90 -2 -90 11 0 7 66 6 100 -1z m-118
-33 c-7 -7 -12 -8 -12 -2 0 14 12 26 19 19 2 -3 -1 -11 -7 -17z m-132 -48 c0
-33 -17 -49 -26 -26 -8 22 4 68 16 61 6 -3 10 -19 10 -35z m213 5 c15 -3 25
-10 22 -15 -6 -10 -32 -7 -92 12 -46 13 -41 28 5 18 20 -5 50 -12 65 -15z
m-999 -28 c43 -35 29 -53 -15 -21 -35 25 -38 25 -79 11 l-43 -14 32 -19 c31
-18 40 -34 20 -34 -31 0 -120 69 -91 70 31 2 90 14 102 21 24 14 43 10 74 -14z
m73 -27 c17 -32 20 -46 11 -49 -6 -2 -14 1 -16 7 -2 6 -14 27 -28 47 -28 42
-29 48 -7 43 9 -2 27 -23 40 -48z m-372 16 c19 -8 35 -17 35 -20 0 -7 -63 13
-74 24 -14 14 -1 13 39 -4z m745 8 c0 -12 -62 -94 -71 -94 -11 0 -10 2 28 63
20 32 43 49 43 31z m455 -29 c59 -20 74 -28 69 -37 -3 -5 -14 -6 -25 -3 -26 9
-24 -9 3 -27 15 -10 19 -20 15 -32 -7 -17 -30 -18 -73 -4 -5 2 -11 -1 -13 -7
-4 -8 49 -45 84 -58 6 -3 7 -7 4 -11 -13 -13 -88 14 -107 39 -17 21 -18 30 -9
65 9 31 15 39 28 35 32 -10 30 13 -2 29 -24 12 -35 13 -45 5 -9 -8 -14 -8 -14
-1 0 21 36 24 85 7z m-1565 -24 c0 -11 -4 -23 -10 -26 -6 -4 -10 5 -10 19 0
14 5 26 10 26 6 0 10 -9 10 -19z m27 -28 c-3 -10 -5 -2 -5 17 0 19 2 27 5 18
2 -10 2 -26 0 -35z m796 -26 c4 -45 -7 -74 -18 -45 -5 14 -9 62 -6 93 2 35 19
2 24 -48z m-330 36 c26 -9 47 -21 47 -25 0 -14 -23 -9 -75 16 -58 28 -41 34
28 9z m-163 -11 c22 -10 23 -11 4 -11 -11 -1 -29 5 -40 13 -22 17 -4 16 36 -2z
m363 -83 c-10 -10 -65 69 -57 83 3 5 20 -9 36 -32 19 -25 27 -45 21 -51z m32
50 c29 -55 36 -79 22 -79 -14 0 -69 104 -60 114 9 9 22 -3 38 -35z m-570 21
c3 -5 1 -10 -4 -10 -6 0 -11 5 -11 10 0 6 2 10 4 10 3 0 8 -4 11 -10z m1154 0
c-9 -5 -36 -12 -60 -14 l-44 -6 40 14 c48 17 89 21 64 6z m-1055 -25 c-4 -8
-10 -15 -15 -15 -4 0 -6 7 -3 15 4 8 10 15 15 15 4 0 6 -7 3 -15z m835 -34
c-44 -44 -66 -54 -49 -21 10 19 81 73 87 66 2 -2 -15 -22 -38 -45z m-652 16
c38 -2 15 -14 -24 -12 -59 3 -63 4 -63 15 0 7 13 9 33 5 17 -3 42 -7 54 -8z
m188 -17 c16 -16 25 -33 22 -37 -8 -7 -67 45 -67 59 0 16 17 8 45 -22z m248
12 c-2 -7 -4 -32 -5 -57 -1 -46 -11 -64 -23 -45 -11 17 6 121 19 117 6 -3 10
-9 9 -15z m114 -35 c-13 -18 -27 -40 -30 -49 -4 -10 -12 -18 -18 -18 -18 0 -1
52 28 82 35 36 49 25 20 -15z m-713 -7 c-34 -12 -94 -19 -94 -10 0 9 91 29
104 22 5 -3 1 -8 -10 -12z m1016 16 c0 -2 -19 -11 -42 -19 -24 -8 -51 -18 -60
-22 -10 -4 -18 -3 -18 3 0 12 67 41 98 41 12 1 22 -1 22 -3z m-696 -37 c31
-17 55 -33 52 -36 -8 -9 -94 28 -112 48 -25 27 -6 23 60 -12z m896 15 c0 -8
-5 -12 -10 -9 -6 4 -8 11 -5 16 9 14 15 11 15 -7z m-32 -31 c13 -8 22 -17 19
-19 -6 -6 -87 34 -87 42 0 8 41 -6 68 -23z m-978 -9 l25 -13 -28 -1 c-32 0
-67 16 -67 31 0 12 31 4 70 -17z m250 -16 c23 -51 25 -78 6 -78 -8 0 -17 15
-20 34 -4 19 -16 46 -27 60 l-20 26 21 0 c15 0 26 -12 40 -42z m-395 -18 c58
-22 6 -23 -83 -1 -2 1 -1 5 3 10 6 10 39 7 80 -9z m737 -10 c-18 -17 -38 -30
-45 -30 -14 1 53 59 68 59 6 0 -5 -13 -23 -29z m-877 1 c17 -1 18 -3 5 -11
-15 -10 -87 -11 -104 -2 -15 8 26 20 54 16 14 -1 34 -3 45 -3z m335 -1 c12 0
70 -50 70 -61 0 -14 -30 -10 -36 5 -3 7 -21 22 -40 32 -34 19 -48 42 -18 30 9
-3 19 -6 24 -6z m730 6 c0 -3 -25 -12 -55 -20 -30 -9 -62 -19 -72 -23 -15 -5
-16 -4 -5 8 22 24 132 53 132 35z m156 -21 c25 -19 6 -19 -37 0 -32 13 -32 14
-8 15 14 0 34 -7 45 -15z m-719 -61 c37 -68 39 -74 18 -74 -13 0 -75 111 -75
134 0 23 29 -8 57 -60z m251 11 c-12 -19 -29 -35 -35 -35 -20 0 -16 12 19 54
38 46 51 31 16 -19z m-510 3 c34 -13 62 -27 62 -31 0 -17 -122 22 -135 43 -9
15 3 13 73 -12z m1097 4 c15 -8 16 -11 4 -12 -8 0 -24 6 -35 14 -23 18 1 16
31 -2z m-671 -34 c-1 -13 -3 -29 -3 -35 -1 -7 -5 -13 -11 -13 -5 0 -10 21 -10
46 0 38 3 44 13 35 8 -6 13 -21 11 -33z m-499 -28 c11 -17 -11 -11 -39 11 -36
28 -33 45 4 19 16 -11 32 -25 35 -30z m648 6 l-28 -25 45 4 c25 2 72 10 105
19 73 20 99 20 66 2 -30 -16 -18 -24 50 -32 44 -5 157 -26 204 -38 6 -2 28 -7
50 -11 22 -5 43 -10 48 -11 4 -1 28 -2 53 -3 35 -1 44 -4 37 -13 -14 -19 -15
-68 0 -73 55 -19 69 -26 64 -31 -3 -3 -15 0 -27 6 -29 16 -103 -11 -117 -43
-11 -26 -6 -89 9 -98 7 -4 7 -9 -1 -13 -6 -4 -20 -28 -31 -54 -20 -45 -63 -91
-86 -92 -5 0 -19 -7 -30 -15 -18 -14 -18 -16 21 -49 22 -19 37 -37 34 -40 -3
-4 -26 12 -52 34 -41 36 -48 39 -73 30 -15 -6 -29 -9 -31 -6 -7 7 46 32 95 45
36 10 46 19 66 59 13 26 31 85 40 131 8 46 17 84 18 85 26 10 44 28 49 47 l7
24 1 -23 c1 -29 21 -19 21 11 0 34 -13 46 -55 52 -22 3 -76 13 -120 22 -89 19
-345 24 -455 9 -36 -4 -62 -5 -59 -2 4 4 29 10 55 12 69 8 68 14 -4 14 -33 0
-64 5 -67 10 -3 6 -2 10 3 10 4 0 26 16 48 35 21 19 47 35 57 35 15 0 13 -5
-10 -24z m-927 -2 c-22 -8 -42 -12 -45 -8 -10 9 23 24 54 23 29 0 29 -1 -9
-15z m1294 6 c0 -6 -11 -8 -27 -4 -40 10 -41 14 -5 14 18 0 32 -5 32 -10z
m-1105 -10 c14 -6 4 -9 -38 -9 -36 -1 -56 3 -52 9 7 12 62 12 90 0z m1262 -13
c4 -7 0 -8 -11 -4 -10 4 -22 7 -27 7 -5 0 -9 4 -9 9 0 12 38 2 47 -12z m-767
-48 c0 -5 5 -7 12 -3 7 4 8 3 4 -4 -4 -7 -2 -12 3 -12 6 0 11 -6 11 -14 0 -9
-7 -12 -20 -9 -10 3 -19 8 -18 12 2 22 -5 28 -32 26 -16 -1 -30 1 -30 6 0 5
16 9 35 9 19 0 35 -5 35 -11z m-440 -23 c0 -2 -7 -7 -16 -10 -8 -3 -12 -2 -9
4 6 10 25 14 25 6z m553 -23 c-7 -2 -19 -2 -25 0 -7 3 -2 5 12 5 14 0 19 -2
13 -5z m555 -15 c24 -6 42 -17 42 -24 0 -8 -6 -14 -12 -14 -31 0 -95 24 -111
41 -18 19 -18 20 10 14 15 -3 47 -11 71 -17z m-778 -23 c0 -18 -33 -8 -48 15
-11 17 -9 18 18 8 17 -5 30 -16 30 -23z m190 -10 c0 -10 -10 -15 -26 -15 -22
0 -25 2 -14 15 7 8 19 15 26 15 8 0 14 -7 14 -15z m156 -4 c-3 -4 -24 -11 -45
-15 -42 -6 -61 -27 -55 -61 2 -11 5 -47 8 -80 4 -47 3 -53 -4 -30 -5 17 -12
53 -15 82 -6 63 12 89 70 102 22 5 41 9 43 10 2 1 1 -3 -2 -8z m564 -7 c0 -8
-5 -12 -10 -9 -6 4 -8 11 -5 16 9 14 15 11 15 -7z m-188 -16 c12 -17 3 -164
-12 -206 -13 -34 -46 -60 -60 -45 -5 4 -10 35 -11 68 -3 68 -19 123 -49 165
-11 15 -20 31 -20 33 0 12 144 -3 152 -15z m-802 -51 c7 -73 -13 -193 -36
-218 -9 -10 -29 -19 -44 -19 -27 0 -27 0 -33 88 -3 48 -14 113 -25 144 -10 32
-18 59 -16 61 2 1 36 2 76 2 l73 -1 5 -57z m-570 32 c0 -5 -4 -9 -10 -9 -5 0
-10 7 -10 16 0 8 5 12 10 9 6 -3 10 -10 10 -16z m170 16 c0 -3 -14 -11 -30
-20 -23 -12 -30 -12 -28 -3 2 7 6 15 10 18 9 7 48 10 48 5z m470 -9 c15 -20
19 -72 7 -118 -10 -38 -21 -48 -29 -25 -9 24 -8 157 1 157 5 0 14 -6 21 -14z
m808 -2 c5 -9 7 -26 5 -38 -27 -120 -38 -125 -40 -21 -1 57 2 75 12 75 8 0 18
-7 23 -16z m-1358 -19 c-15 -18 -7 -91 16 -157 8 -24 10 -38 5 -33 -12 13 -41
120 -41 155 0 14 5 31 12 38 17 17 23 15 8 -3z m1596 -75 c8 -7 13 -15 11 -17
-5 -4 -97 34 -97 41 0 8 71 -12 86 -24z m-199 -42 c-3 -8 -6 -5 -6 6 -1 11 2
17 5 13 3 -3 4 -12 1 -19z m-1349 -43 c-3 -3 -9 2 -12 12 -6 14 -5 15 5 6 7
-7 10 -15 7 -18z m549 -7 c-3 -7 -5 -2 -5 12 0 14 2 19 5 13 2 -7 2 -19 0 -25z
m237 -14 c3 -8 2 -12 -4 -9 -6 3 -10 10 -10 16 0 14 7 11 14 -7z m-748 -41
c23 -31 24 -34 5 -18 -22 19 -46 55 -38 55 3 0 17 -17 33 -37z m1443 -14 c24
-11 40 -23 37 -26 -7 -7 -94 25 -101 38 -10 15 19 10 64 -12z m-1468 -6 c13
-16 12 -17 -3 -4 -10 7 -18 15 -18 17 0 8 8 3 21 -13z m834 -3 c3 -6 -1 -7 -9
-4 -18 7 -21 14 -7 14 6 0 13 -4 16 -10z m50 -20 c13 -6 15 -9 5 -9 -8 0 -22
4 -30 9 -18 12 -2 12 25 0z m-1026 -39 c-31 -36 -59 -52 -59 -34 0 13 64 73
78 73 9 0 2 -14 -19 -39z m1148 23 c-3 -3 -12 -4 -19 -1 -8 3 -5 6 6 6 11 1
17 -2 13 -5z m418 -54 c16 -16 24 -30 18 -30 -14 0 -63 39 -63 51 0 17 16 9
45 -21z m133 -27 c33 -20 42 -29 29 -31 -19 -4 -87 34 -87 49 0 14 7 11 58
-18z m-1667 -45 c-46 -75 -60 -93 -68 -85 -10 10 21 69 58 111 44 50 48 37 10
-26z m1342 6 c21 -20 36 -38 33 -41 -6 -6 -86 59 -86 70 0 15 16 6 53 -29z
m-230 -4 c-7 -25 -23 -37 -23 -16 0 23 11 46 20 41 5 -3 6 -14 3 -25z m-994
-7 c-36 -43 -60 -66 -65 -60 -12 12 5 37 38 57 40 24 44 25 27 3z m1608 -35
c-3 -8 -6 -5 -6 6 -1 11 2 17 5 13 3 -3 4 -12 1 -19z m-212 -28 c12 -19 -12
-10 -31 11 -19 22 -19 22 3 10 12 -6 25 -16 28 -21z m174 -11 c9 -15 8 -19 -3
-19 -12 0 -46 40 -46 55 0 10 37 -18 49 -36z m-1799 16 c0 -8 -4 -15 -10 -15
-5 0 -7 7 -4 15 4 8 8 15 10 15 2 0 4 -7 4 -15z m370 -35 c-7 -16 -17 -30 -22
-30 -11 0 -1 38 15 58 16 21 21 5 7 -28z m965 -10 c16 -16 26 -32 23 -36 -7
-6 -68 48 -68 60 0 14 18 4 45 -24z m407 3 c22 -26 30 -53 15 -53 -7 0 -20 16
-29 35 -19 37 -11 47 14 18z m-1482 -1 c0 -12 -52 -64 -58 -58 -3 4 7 20 23
36 30 32 35 35 35 22z m1170 -28 c12 -19 20 -37 17 -40 -5 -5 -57 58 -57 69 0
18 21 3 40 -29z m92 -16 c20 -30 31 -68 21 -68 -7 0 -25 30 -51 83 -8 18 17 5
30 -15z m-549 -2 c3 -8 0 -17 -8 -19 -15 -7 -25 1 -25 20 0 17 26 17 33 -1z
m665 -19 c21 -20 30 -47 15 -47 -5 1 -21 19 -36 41 -28 41 -21 43 21 6z
m-1584 -9 c-19 -33 -49 -68 -56 -68 -16 0 -7 22 21 51 30 30 48 38 35 17z m46
-14 c0 -15 -44 -104 -51 -104 -14 0 -10 20 13 66 18 38 38 57 38 38z m161 -41
c-19 -36 -40 -58 -46 -51 -9 8 32 68 46 68 6 0 6 -6 0 -17z m1009 2 c0 -8 -2
-15 -4 -15 -2 0 -6 7 -10 15 -3 8 -1 15 4 15 6 0 10 -7 10 -15z m-910 -54
c-11 -23 -25 -41 -30 -41 -14 0 -13 1 17 56 32 57 43 44 13 -15z m1514 23 c3
-7 1 -16 -5 -19 -5 -4 -7 -22 -3 -41 8 -43 -3 -44 -20 -1 -28 68 -29 75 -2 75
14 0 27 -7 30 -14z m-551 -65 c8 -26 11 -52 7 -59 -4 -7 -10 -8 -13 -4 -12 20
-35 113 -29 118 9 10 18 -5 35 -55z m331 25 c8 -22 -8 -16 -35 12 l-24 26 27
-12 c15 -7 29 -19 32 -26z m-190 10 c4 -10 1 -14 -6 -12 -15 5 -23 28 -10 28
5 0 13 -7 16 -16z m-1364 -53 c-11 -22 -25 -43 -31 -47 -17 -10 -2 46 18 69
28 30 34 19 13 -22z m335 29 c3 -5 1 -10 -4 -10 -6 0 -11 5 -11 10 0 6 2 10 4
10 3 0 8 -4 11 -10z m995 -46 c0 -43 -19 -64 -21 -24 -1 11 -2 30 -3 43 -3 28
3 39 15 32 5 -4 9 -26 9 -51z m283 7 c29 -52 32 -61 20 -61 -8 0 -63 92 -63
104 0 20 20 -1 43 -43z m85 2 c2 -21 5 -46 8 -55 3 -10 1 -18 -5 -18 -15 0
-26 56 -22 108 2 28 17 1 19 -35z m-1052 -10 l29 -28 -23 -3 c-15 -2 -30 5
-43 19 -39 45 -9 55 37 12z m788 -47 c19 -58 19 -56 6 -56 -8 0 -40 89 -40
114 0 21 18 -10 34 -58z m-1294 46 c0 -5 -13 -29 -30 -53 -16 -24 -30 -54 -30
-67 0 -13 -4 -20 -10 -17 -12 7 -14 65 -2 65 5 0 15 12 22 28 8 15 18 33 23
40 11 14 27 16 27 4z m982 -14 c-7 -7 -12 -8 -12 -2 0 14 12 26 19 19 2 -3 -1
-11 -7 -17z m418 -15 c34 -73 39 -92 30 -98 -6 -3 -14 5 -20 19 -5 14 -18 44
-29 66 -14 28 -16 40 -7 40 7 0 19 -12 26 -27z m-1201 -5 c-21 -40 -50 -78
-60 -78 -5 0 5 23 22 50 30 49 61 71 38 28z m-483 -43 c-4 -19 -11 -33 -17
-30 -8 6 -3 48 8 68 10 18 15 -4 9 -38z m154 40 c0 -12 -24 -55 -32 -55 -11 0
-10 17 2 41 9 17 30 27 30 14z m205 -32 c-27 -47 -44 -67 -51 -61 -7 8 46 88
58 88 5 0 2 -12 -7 -27z m1035 -7 c0 -23 -34 -76 -43 -66 -5 6 30 90 38 90 3
0 5 -11 5 -24z m-90 -5 c0 -11 -5 -32 -11 -48 -14 -35 -23 -15 -15 33 7 36 26
47 26 15z m655 -43 c8 -51 1 -62 -15 -25 -6 12 -15 29 -22 38 -9 13 -8 20 3
32 19 21 26 11 34 -45z m-497 1 c-13 -37 -30 -38 -22 -1 11 53 14 58 24 43 4
-8 4 -26 -2 -42z m-898 2 c0 -10 3 -40 6 -67 4 -35 2 -45 -5 -33 -13 21 -29
91 -24 107 7 19 23 14 23 -7z m550 0 c11 -1 9 -6 -7 -22 -31 -32 -140 -51
-246 -44 -82 6 -137 17 -137 29 0 14 48 27 117 33 43 3 98 9 123 12 25 4 65 3
90 -1 25 -4 52 -7 60 -7z m90 -26 c-7 -19 -14 -25 -21 -18 -7 7 -6 19 2 37 16
35 33 18 19 -19z m679 4 c14 -40 14 -89 1 -89 -5 0 -10 6 -11 13 -1 12 -4 32
-13 80 -7 37 10 34 23 -4z m-1795 -78 c-3 -39 -11 -71 -15 -71 -14 0 -11 124
3 138 18 18 20 9 12 -67z m1488 52 c7 -33 -4 -73 -19 -73 -10 0 -13 6 -9 16 3
9 6 29 6 45 0 31 16 40 22 12z m-48 -25 c-11 -67 -15 -81 -23 -72 -13 15 -1
104 15 104 10 0 12 -9 8 -32z m-1213 9 c-1 -4 -1 -17 -1 -28 0 -17 -3 -19 -14
-10 -15 13 -10 54 6 49 5 -2 9 -7 9 -11z m-122 -72 c2 -52 -12 -76 -22 -37 -7
23 -7 84 -1 94 12 19 21 -4 23 -57z m1156 18 c-1 -56 -13 -96 -25 -88 -5 3 -7
12 -4 19 3 8 7 36 9 62 4 58 3 54 13 54 4 0 8 -21 7 -47z m323 -36 c-10 -49
-31 -67 -23 -19 3 15 7 41 9 57 2 17 5 32 5 35 1 3 6 -2 11 -10 5 -9 4 -35 -2
-63z m-1291 -2 c-2 -67 -11 -82 -26 -42 -13 33 0 107 18 107 5 0 9 -29 8 -65z
m1055 21 c-6 -26 -21 -46 -35 -46 -7 0 -7 4 1 12 7 7 12 24 12 38 0 15 3 30 7
33 11 11 21 -13 15 -37z m-947 -8 c-1 -13 -3 -38 -4 -55 0 -18 -5 -33 -11 -33
-11 0 -14 69 -4 94 9 24 22 19 19 -6z m779 6 c6 -16 -20 -91 -29 -82 -8 7 7
98 15 98 4 0 11 -7 14 -16z m577 -1 c3 -38 -1 -67 -11 -77 -15 -15 -17 -6 -12
47 4 45 20 66 23 30z m-641 -42 c0 -43 -8 -73 -19 -67 -9 6 0 106 10 106 5 0
9 -18 9 -39z m416 -3 c-4 -18 -16 -42 -28 -53 -21 -20 -21 -20 -13 0 4 11 11
35 17 53 12 43 33 43 24 0z m-1343 -34 c-1 -31 -4 -59 -7 -62 -8 -8 -25 43
-21 64 2 11 4 27 4 37 1 9 7 17 14 17 9 0 12 -16 10 -56z m1507 21 c0 -38 -19
-87 -31 -80 -4 3 -4 19 1 35 10 36 10 34 10 60 0 11 5 20 10 20 6 0 10 -16 10
-35z m151 28 c0 -5 2 -17 5 -28 5 -26 -6 -98 -14 -90 -10 9 -10 125 0 125 4 0
8 -3 9 -7z m-1391 -75 c-1 -64 -2 -71 -14 -55 -8 10 -12 32 -11 50 2 18 3 42
4 55 1 12 6 22 11 22 6 0 10 -31 10 -72z m1483 34 c9 -21 18 -56 22 -78 l6
-39 -14 30 c-24 47 -47 125 -37 125 4 0 15 -17 23 -38z m-1289 12 c9 -23 7
-64 -3 -64 -9 0 -21 34 -21 63 0 21 16 22 24 1z m392 -14 c-1 -16 -5 -30 -11
-30 -5 0 -9 7 -9 15 1 8 2 22 3 30 2 29 18 15 17 -15z m-971 -30 c0 -63 -19
-60 -23 3 -2 34 1 47 10 47 9 0 13 -15 13 -50z m673 -3 c2 -28 -1 -47 -7 -47
-6 0 -11 6 -12 13 0 6 -2 29 -5 50 -2 27 0 37 9 34 6 -2 13 -25 15 -50z m73
33 c4 -55 1 -70 -11 -70 -5 0 -10 20 -10 45 0 44 19 66 21 25z m584 -79 c-15
-15 -16 -12 -10 34 10 68 19 79 23 26 2 -31 -2 -49 -13 -60z m213 23 c-3 -40
-24 -51 -22 -11 1 12 2 33 3 47 1 17 4 21 12 13 6 -6 9 -28 7 -49z m-1726 -14
c-21 -48 -28 -56 -36 -43 -11 20 29 103 50 103 8 0 4 -18 -14 -60z m653 -45
c5 -40 4 -48 -6 -38 -15 14 -39 123 -31 138 8 13 28 -42 37 -100z m402 77 c1
-9 0 -24 -3 -32 -8 -23 -22 6 -16 36 5 26 14 25 19 -4z m380 -39 c-8 -72 -28
-78 -23 -7 5 71 4 67 17 58 7 -4 9 -24 6 -51z m-1067 -13 c0 -33 -4 -60 -10
-60 -6 0 -10 27 -10 60 0 33 4 60 10 60 6 0 10 -27 10 -60z m961 33 c9 -53 -3
-113 -24 -113 -5 0 -7 10 -3 23 3 12 6 39 6 60 0 20 5 37 10 37 6 0 11 -3 11
-7z m-1275 -70 c-9 -26 -16 -57 -16 -70 0 -26 -15 -31 -24 -7 -8 20 2 59 27
109 25 51 34 30 13 -32z m1834 48 c0 -11 -3 -27 -6 -36 -10 -24 -22 0 -16 31
5 28 22 32 22 5z m-199 -13 c0 -13 2 -31 4 -40 2 -9 -3 -25 -11 -35 -12 -16
-13 -11 -14 40 0 31 4 57 10 57 6 0 10 -10 11 -22z m-956 -58 c10 -30 20 -61
23 -67 2 -7 0 -13 -6 -13 -12 0 -38 63 -47 116 -10 54 8 33 30 -36z m-473 -22
c5 -57 -3 -74 -17 -40 -5 9 -9 37 -10 62 -4 91 20 71 27 -22z m1368 40 c0 -24
-5 -50 -10 -58 -12 -19 -14 -5 -11 70 2 47 21 35 21 -12z m-1164 -25 c-5 -73
-5 -71 -16 -53 -12 19 -13 52 0 84 15 41 21 31 16 -31z m329 20 c4 -21 10 -49
14 -63 8 -26 4 -50 -8 -50 -7 0 -31 109 -31 139 0 28 20 7 25 -26z m140 -12
c3 -30 0 -41 -10 -41 -14 0 -17 25 -9 69 7 32 14 21 19 -28z m320 -7 c-2 -24
-7 -49 -10 -54 -9 -14 -25 -12 -20 3 4 10 11 59 14 100 1 5 6 5 11 2 6 -3 8
-26 5 -51z m-1162 -36 c-29 -73 -43 -92 -43 -60 0 25 24 88 41 109 25 30 26 9
2 -49z m1103 30 c-2 -18 -4 -41 -5 -50 0 -10 -6 -18 -11 -18 -7 0 -10 20 -9
50 2 32 7 50 15 50 8 0 11 -12 10 -32z m860 -36 c3 -62 -2 -92 -17 -92 -10 0
-13 143 -2 153 12 12 17 -3 19 -61z m-926 21 c0 -52 -10 -83 -25 -83 -11 0
-11 8 -4 32 5 18 9 45 9 60 0 16 5 28 10 28 6 0 10 -17 10 -37z m873 -52 c-3
-46 -8 -59 -20 -47 -9 9 -6 113 4 129 10 17 20 -29 16 -82z m-2031 57 c-7 -7
-12 -8 -12 -2 0 14 12 26 19 19 2 -3 -1 -11 -7 -17z m1958 -4 c0 -14 -4 -23
-10 -19 -5 3 -10 15 -10 26 0 10 5 19 10 19 6 0 10 -12 10 -26z m-142 -31 c-3
-50 -23 -64 -21 -16 1 55 3 63 14 63 6 0 9 -19 7 -47z m-1220 -33 c1 -34 4
-66 7 -71 4 -5 2 -9 -4 -9 -19 0 -37 103 -24 137 10 26 19 3 21 -57z m970 38
c-2 -17 -8 -33 -14 -35 -6 -2 -8 10 -6 32 5 44 24 47 20 3z m-1182 -58 c4 -59
-8 -81 -20 -37 -8 30 -8 92 1 100 12 12 16 -2 19 -63z m666 49 c6 -19 -4 -79
-13 -79 -5 0 -9 20 -9 45 0 41 13 61 22 34z m418 -42 c0 -51 -9 -87 -22 -87
-5 0 -7 19 -4 43 2 23 5 55 5 70 1 45 21 20 21 -26z m-1303 16 c-16 -86 -32
-136 -44 -140 -11 -4 6 108 22 150 11 27 28 20 22 -10z m745 -43 c2 -19 -1
-37 -7 -40 -6 -3 -11 16 -13 45 -4 57 15 53 20 -5z m1018 -4 c0 -43 -12 -67
-25 -47 -8 14 6 91 16 91 5 0 9 -20 9 -44z m-1244 -30 c2 -25 0 -46 -5 -46
-13 0 -21 26 -21 73 0 56 20 35 26 -27z m684 20 c0 -48 -14 -96 -28 -96 -7 0
-2 69 6 95 1 3 2 14 2 25 0 11 5 20 10 20 6 0 10 -20 10 -44z m357 -37 c-4
-44 -22 -49 -21 -6 3 70 4 74 14 56 5 -9 8 -32 7 -50z m-1767 -4 c-19 -31 -40
-46 -40 -29 0 10 22 48 39 67 24 29 25 1 1 -38z m251 -51 c-15 -73 -31 -98
-31 -48 0 23 14 96 26 134 4 11 7 12 13 2 4 -7 1 -47 -8 -88z m284 48 c1 -15
5 -42 9 -59 10 -43 -8 -44 -23 -2 -12 36 -14 82 -4 92 10 11 17 -1 18 -31z
m468 1 c-2 -21 -6 -39 -8 -42 -9 -9 -17 30 -11 54 10 39 24 30 19 -12z m1194
25 c-2 -7 0 -24 6 -38 5 -14 12 -36 14 -50 2 -14 8 -29 14 -34 17 -18 9 -26
-15 -15 -18 9 -25 21 -29 58 -3 25 -9 56 -12 69 -6 17 -3 22 10 22 10 0 15 -5
12 -12z m-1403 -68 c15 -57 14 -66 -3 -56 -13 8 -33 105 -24 119 8 12 8 12 27
-63z m520 21 c-13 -81 -16 -91 -30 -91 -11 0 -12 5 -6 18 5 9 10 37 11 62 2
25 5 49 8 54 9 14 21 -16 17 -43z m348 -36 c-2 -20 -10 -35 -17 -35 -7 0 -12
8 -10 18 13 65 17 75 24 64 4 -6 5 -28 3 -47z m-1339 -32 c-3 -38 -7 -70 -9
-72 -17 -19 -26 83 -11 122 15 38 24 14 20 -50z m906 15 c-1 -24 -6 -51 -11
-61 -14 -28 -28 -10 -18 23 10 36 10 34 10 60 0 11 5 20 11 20 6 0 10 -17 8
-42z m929 0 c5 -26 5 -50 0 -61 -13 -25 -14 -21 -22 46 -9 68 8 79 22 15z
m-75 -5 c4 -21 4 -47 2 -58 -2 -11 -4 -23 -4 -27 -1 -5 -5 -8 -10 -8 -5 0 -11
29 -13 65 -3 72 15 92 25 28z m-1203 -18 c17 -39 32 -59 29 -37 -3 18 2 32 11
32 6 0 10 -16 10 -35 0 -24 -6 -37 -20 -45 -15 -8 -21 -8 -25 2 -34 94 -42
128 -30 128 3 0 14 -20 25 -45z m1110 43 c1 -2 4 -31 7 -65 7 -76 -11 -87 -21
-13 -4 28 -9 57 -12 65 -4 9 0 15 10 15 9 0 16 -1 16 -2z m-1604 -73 c-5 -36
-13 -65 -18 -65 -11 0 -10 73 2 104 18 47 26 27 16 -39z m771 24 c-3 -22 -8
-43 -11 -46 -13 -13 -18 8 -11 46 9 54 29 54 22 0z m772 -24 c14 -55 14 -115
1 -115 -5 0 -11 12 -12 28 0 15 -2 32 -3 37 -3 19 -17 80 -22 100 -5 17 -4 18
9 7 9 -7 21 -32 27 -57z m-1903 10 c-10 -20 -15 -43 -12 -52 4 -9 1 -13 -6
-11 -22 7 -20 53 3 82 28 36 36 26 15 -19z m1774 9 c17 -43 25 -174 11 -174
-6 0 -11 10 -12 23 0 12 -2 31 -4 42 -2 11 -7 40 -10 64 -4 24 -9 50 -12 57
-3 8 0 14 6 14 6 0 16 -12 21 -26z m-735 -24 c-4 -22 -8 -47 -9 -55 -3 -23
-15 -29 -22 -11 -8 20 15 106 28 106 6 0 7 -17 3 -40z m465 13 c0 -39 -11 -73
-22 -73 -5 0 -7 16 -4 38 3 20 5 43 6 50 0 25 20 11 20 -15z m-1416 -30 c-4
-21 -6 -53 -6 -71 0 -18 -3 -30 -7 -27 -16 10 -21 56 -11 95 14 52 34 53 24 3z
m346 15 c0 -37 -20 -99 -30 -93 -5 3 -7 13 -6 23 2 9 6 34 10 55 7 40 26 51
26 15z m194 -30 c22 -60 22 -62 12 -68 -8 -4 -18 17 -40 88 -13 41 12 23 28
-20z m768 -11 c0 -43 -10 -77 -23 -77 -9 0 -2 96 8 113 9 15 15 -1 15 -36z
m-897 -24 c-7 -61 -11 -73 -25 -73 -5 0 -7 19 -4 43 8 67 14 87 25 87 7 0 9
-19 4 -57z m-311 5 c-1 -13 -3 -48 -3 -78 -2 -51 -3 -54 -17 -35 -22 29 -9
155 15 141 4 -3 7 -15 5 -28z m1535 -20 c19 -70 21 -118 7 -118 -9 0 -16 19
-20 51 -4 29 -10 65 -13 80 -9 46 13 34 26 -13z m-769 13 c0 -11 5 -23 10 -26
6 -3 10 -17 10 -31 0 -13 -4 -24 -10 -24 -5 0 -10 11 -10 25 0 13 -7 28 -15
33 -10 5 -13 15 -9 25 8 23 24 21 24 -2z m1370 -32 c13 -32 18 -55 12 -61 -8
-8 -52 79 -52 103 0 25 20 3 40 -42z m-1734 0 c-7 -42 -32 -89 -47 -89 -12 0
-11 3 6 36 8 16 15 44 15 62 0 23 5 32 16 32 14 0 15 -7 10 -41z m169 6 c8
-19 22 -51 30 -70 12 -27 12 -35 3 -35 -11 0 -27 32 -65 128 -3 6 0 12 6 12 6
0 18 -16 26 -35z m525 -2 c0 -48 -10 -83 -22 -83 -6 0 -8 18 -4 43 3 23 5 50
5 60 2 35 21 16 21 -20z m-1418 -25 c-6 -24 -14 -58 -18 -76 -6 -36 -12 -37
-19 -3 -3 18 4 47 30 120 12 31 17 -2 7 -41z m373 -116 c-12 -13 -20 14 -21
76 -1 37 3 73 10 81 8 11 12 -5 14 -69 2 -45 0 -85 -3 -88z m949 121 c-5 -57
-14 -84 -23 -78 -9 5 -7 41 4 93 9 37 23 25 19 -15z m826 10 c0 -38 -10 -73
-21 -73 -5 0 -9 23 -9 50 0 38 4 50 15 50 10 0 15 -10 15 -27z m101 5 c4 -72
1 -102 -9 -106 -8 -2 -12 17 -12 62 0 37 4 66 10 66 6 0 11 -10 11 -22z
m-2202 -63 c-12 -36 -28 -65 -35 -65 -15 0 8 78 34 118 25 39 26 16 1 -53z
m1741 -17 c0 -32 -4 -58 -10 -58 -5 0 -10 15 -11 33 0 17 -2 52 -5 77 -4 42
-4 44 11 26 9 -13 15 -41 15 -78z m-1290 -17 c-15 -92 -36 -99 -26 -9 6 58 22
105 33 94 3 -3 0 -41 -7 -85z m-57 9 c-1 -60 -7 -80 -19 -67 -9 8 -8 112 0
126 14 22 21 2 19 -59z m1909 1 c-2 -28 -8 -51 -12 -51 -9 0 -12 99 -3 114 11
17 18 -14 15 -63z m-643 -24 c1 -35 -3 -47 -11 -45 -13 5 -21 91 -11 118 9 24
21 -17 22 -73z m-1559 67 c0 -25 -26 -84 -37 -84 -16 0 -16 1 3 50 14 34 34
54 34 34z m1092 -6 c3 -7 1 -32 -4 -55 -11 -54 -33 -59 -24 -5 3 20 6 45 6 55
0 20 16 23 22 5z m400 -73 c-5 -37 -11 -44 -21 -26 -9 13 -5 66 5 91 10 22 22
-27 16 -65z m-829 31 c-5 -26 -29 -53 -39 -43 -3 3 -1 13 5 24 5 10 12 26 15
36 9 27 24 12 19 -17z m219 -35 c5 -16 4 -21 -4 -19 -6 2 -15 14 -20 27 -5 16
-4 21 4 19 6 -2 15 -14 20 -27z m118 15 c0 -23 -11 -46 -20 -41 -10 6 0 55 11
55 5 0 9 -6 9 -14z m393 -39 c-1 -17 -5 -41 -7 -52 -3 -11 -5 -23 -5 -27 -1
-5 -6 -8 -12 -8 -13 0 -7 109 6 130 12 19 22 -5 18 -43z m526 -3 c10 -36 1
-74 -17 -74 -6 0 -9 97 -3 108 5 9 11 -3 20 -34z m-629 10 c0 -8 -4 -12 -10
-9 -5 3 -10 10 -10 16 0 5 5 9 10 9 6 0 10 -7 10 -16z m737 -11 c2 -6 -2 -13
-10 -16 -8 -3 -13 3 -14 15 -2 20 18 21 24 1z m338 -13 c3 -6 -1 -7 -9 -4 -18
7 -21 14 -7 14 6 0 13 -4 16 -10z"/>
<path d="M0 33 c0 -32 1 -33 44 -33 l45 0 -10 29 c-8 23 -17 30 -45 33 -33 4
-34 3 -34 -29z"/>
<path d="M1103 3 c9 -2 23 -2 30 0 6 3 -1 5 -18 5 -16 0 -22 -2 -12 -5z"/>
<path d="M1163 3 c9 -2 25 -2 35 0 9 3 1 5 -18 5 -19 0 -27 -2 -17 -5z"/>
</g>
</svg>
