<?xml version="1.0" encoding="utf-8"?>
<!-- Generator: Adobe Illustrator 24.1.2, SVG Export Plug-In . SVG Version: 6.00 Build 0)  -->
<svg version="1.1" id="Layer_1" xmlns="http://www.w3.org/2000/svg" xmlns:xlink="http://www.w3.org/1999/xlink" x="0px" y="0px"
	 viewBox="0 0 400 400" style="enable-background:new 0 0 400 400;" xml:space="preserve">
<style type="text/css">
	.st0{fill:#FFFFFF;stroke:#000000;stroke-width:3;stroke-miterlimit:10;}
	.st1{fill:#231F20;}
	.st2{clip-path:url(#SVGID_2_);fill:url(#SVGID_3_);}
	.st3{clip-path:url(#SVGID_5_);fill:url(#SVGID_6_);}
	.st4{fill:#ED5725;}
	.st5{fill:#010101;}
	.st6{clip-path:url(#SVGID_8_);fill:url(#SVGID_9_);}
	.st7{clip-path:url(#SVGID_11_);fill:url(#SVGID_12_);}
	.st8{fill:url(#SVGID_13_);}
	.st9{clip-path:url(#SVGID_15_);fill:url(#SVGID_16_);stroke:#000000;stroke-width:3;stroke-miterlimit:10;}
	.st10{clip-path:url(#SVGID_18_);fill:#FFFFFF;stroke:#000000;stroke-width:3;stroke-miterlimit:10;}
	.st11{fill:#FFFFFF;}
	.st12{clip-path:url(#SVGID_20_);fill:url(#SVGID_21_);}
	.st13{fill:url(#SVGID_22_);}
	.st14{clip-path:url(#SVGID_24_);fill:url(#SVGID_25_);}
	.st15{fill:url(#SVGID_26_);}
	.st16{fill:url(#SVGID_27_);}
	.st17{clip-path:url(#SVGID_29_);fill:url(#SVGID_30_);}
	.st18{fill:url(#SVGID_31_);}
	.st19{fill:url(#SVGID_32_);}
	.st20{fill:url(#SVGID_33_);}
	.st21{clip-path:url(#SVGID_35_);fill:#FFFFFF;}
	.st22{fill:url(#SVGID_36_);}
	.st23{fill:url(#SVGID_37_);}
	.st24{fill:url(#SVGID_38_);}
	.st25{fill:url(#SVGID_39_);}
	.st26{fill:url(#SVGID_40_);}
	.st27{fill:url(#SVGID_41_);}
	.st28{fill:url(#SVGID_42_);}
	.st29{fill:url(#SVGID_43_);}
	.st30{fill:url(#SVGID_44_);}
	.st31{fill:url(#SVGID_45_);}
	.st32{fill:url(#SVGID_46_);}
	.st33{fill:url(#SVGID_47_);}
	.st34{fill:url(#SVGID_48_);}
	.st35{fill:url(#SVGID_49_);}
	.st36{fill:url(#SVGID_50_);}
	.st37{fill:url(#SVGID_51_);}
	.st38{fill:url(#SVGID_52_);}
	.st39{fill:url(#SVGID_53_);}
	.st40{fill:url(#SVGID_54_);}
	.st41{fill:url(#SVGID_55_);}
	.st42{fill:url(#SVGID_56_);}
	.st43{fill:none;stroke:#BF2381;stroke-width:3;stroke-miterlimit:10;}
</style>
<g>
	<g>
		<path d="M200,392.92L200,392.92C93.45,392.92,7.08,306.55,7.08,200v0C7.08,93.45,93.45,7.08,200,7.08h0
			c106.55,0,192.92,86.38,192.92,192.92v0C392.92,306.55,306.55,392.92,200,392.92z"/>
	</g>
	<linearGradient id="SVGID_2_" gradientUnits="userSpaceOnUse" x1="178.4641" y1="200" x2="340.89" y2="200">
		<stop  offset="0" style="stop-color:#BBBDBF"/>
		<stop  offset="0.2" style="stop-color:#E6E7E8"/>
		<stop  offset="0.4944" style="stop-color:#FFFFFF"/>
		<stop  offset="0.8" style="stop-color:#E6E7E8"/>
		<stop  offset="1" style="stop-color:#BBBDBF"/>
	</linearGradient>
	<path style="fill:url(#SVGID_2_);" d="M238.71,211.37l23.79-0.32c18.23-0.24,21.8,4.15,17.83,22.2
		c-3.76,17.05-9.2,21.07-26.91,21.31l-24.3,0.32L238.71,211.37z M253.2,145.61l22.02-0.28c16.46-0.22,20.25,3.17,16.98,18
		c-3.37,15.33-8.5,19.09-23.94,19.3l-23.28,0.31L253.2,145.61z M283.87,112.65c-27.36,0.36-43.65,0.78-61.85,2.18
		c-5.11,0.39-9.38,4.09-10.48,9.1l-32.8,148.78c-1.55,7.07,3.65,13.86,10.88,14.13c18.06,0.7,36.5,0.61,64.96,0.23
		c42.78-0.56,63.59-10.2,71.32-45.31c5.99-27.19-0.13-42.88-26.98-44.75l0.32-1.48c22.72-2.28,34.3-14.76,39.7-39.23
		c7.49-34.02-6.01-43.68-49.69-43.68c-1.4,0-2.83,0.01-4.3,0.03H283.87z"/>
	<g>
		<radialGradient id="SVGID_3_" cx="119.4138" cy="200" r="61.4903" gradientUnits="userSpaceOnUse">
			<stop  offset="0" style="stop-color:#E2A225"/>
			<stop  offset="0" style="stop-color:#FCD453"/>
			<stop  offset="1" style="stop-color:#E4A214"/>
		</radialGradient>
		<path style="fill:url(#SVGID_3_);" d="M64.86,262.65c-2.25,0-4.24-1.27-5.2-3.3c-0.96-2.04-0.66-4.38,0.79-6.11l44.51-53.72
			c0.45-0.54,0.54-1.3,0.23-1.94l-24.64-50.92c-0.86-1.77-0.76-3.83,0.28-5.51c1.04-1.68,2.83-2.7,4.81-2.73l15.63-0.19
			c2.25,0,4.28,1.27,5.24,3.24l15.94,32.93c0.57,1.18,2.17,1.38,3.01,0.36l29.14-35.16c1.09-1.31,2.67-2.06,4.35-2.08l14.93-0.17
			c2.32,0,4.32,1.27,5.27,3.3c0.96,2.04,0.66,4.38-0.79,6.11l-43,51.89c-0.45,0.54-0.54,1.3-0.23,1.94l25.52,52.71
			c0.86,1.78,0.75,3.85-0.29,5.52c-1.04,1.68-2.84,2.7-4.81,2.73l-15.65,0.2c-2.27,0-4.3-1.28-5.25-3.25l-16.8-34.71
			c-0.57-1.18-2.18-1.38-3.01-0.37l-30.64,36.97c-1.05,1.28-2.62,2.04-4.3,2.08L64.86,262.65z"/>
	</g>
</g>
</svg>
